<svg xmlns="http://www.w3.org/2000/svg" width="285.202" height="66.915" viewBox="0 0 285.202 66.915">
  <defs>
    <style>
      .cls-1 {
        fill: #fff;
      }

      .cls-2 {
        fill: #00ff86;
      }

      .cls-3 {
        fill: #01d370;
      }
    </style>
  </defs>
  <g id="Group_1818" data-name="Group 1818" transform="translate(0)">
    <g id="Group_298" data-name="Group 298" transform="translate(0 0)">
      <g id="Group_297" data-name="Group 297">
        <g id="Group_100" data-name="Group 100">
          <g id="Group_1" data-name="Group 1">
            <g id="Group_250" data-name="Group 250" transform="translate(71.928 15.782)">
              <path id="Path_1" data-name="Path 1" class="cls-1" d="M30.014,24.327c-.148-9.509,7.409-17.554,18.27-17.4A20.794,20.794,0,0,1,55.45,8a21.887,21.887,0,0,1,4.48,1.912V15.6a17.3,17.3,0,0,0-4.289-2.351,18.077,18.077,0,0,0-7.357-1.325c-8.037,0-12.761,5.439-12.761,12.4,0,6.912,4.916,12.4,11.89,12.4a15.071,15.071,0,0,0,8.961-2.991V26.528H46.48v-5h15.2V40.994H56.373V39.275a17.011,17.011,0,0,1-8.961,2.447A16.969,16.969,0,0,1,30.014,24.327Z" transform="translate(-30.012 -6.815)"/>
              <path id="Path_2" data-name="Path 2" class="cls-1" d="M44.972,23.664c0-7.4,5.457-13.431,13.154-13.431A12.11,12.11,0,0,1,66.6,13.418V10.97h5.213V36.314H66.5l.052-2.6a11.253,11.253,0,0,1-8.429,3.334C50.428,37.051,44.972,31.068,44.972,23.664Zm21.923-.044c0-5.492-3.7-8.676-8.377-8.676a8.385,8.385,0,0,0-8.281,8.676,8.425,8.425,0,0,0,8.281,8.729C63.19,32.349,66.894,29.156,66.894,23.62Z" transform="translate(-9.118 -2.136)"/>
              <path id="Path_3" data-name="Path 3" class="cls-1" d="M97.2,20.761V36.35H91.937V21.3c0-4.07-1.465-6.377-4.916-6.377-3.164,0-6.337,2.4-6.337,7.158V36.341H75.418V21.288c0-4.07-1.464-6.377-4.916-6.377-2.92,0-5.892,2.062-6.285,6.176V36.332H58.952V10.989h5.265v3.044c.3-.684,2-3.825,7.061-3.825,3.556,0,6.337,1.421,7.941,4.167,1.168-2.2,3.8-4.167,8.577-4.167C93.453,10.217,97.2,13.8,97.2,20.761Z" transform="translate(10.408 -2.172)"/>
              <path id="Path_4" data-name="Path 4" class="cls-1" d="M76.537,28.4c0-7.4,5.457-13.431,13.154-13.431a12.11,12.11,0,0,1,8.473,3.184V7.762l5.265-.886V41.045H98.068l.052-2.6a11.254,11.254,0,0,1-8.429,3.333C81.994,41.791,76.537,35.808,76.537,28.4ZM98.46,28.36c0-5.492-3.7-8.676-8.377-8.676a8.507,8.507,0,0,0-8.429,8.676,8.547,8.547,0,0,0,8.429,8.728C94.756,37.089,98.46,33.9,98.46,28.36Z" transform="translate(34.968 -6.876)"/>
              <path id="Path_5" data-name="Path 5" class="cls-1" d="M89.588,23.664a13.795,13.795,0,0,1,27.579,0,13.8,13.8,0,0,1-27.579,0Zm22.507,0a8.717,8.717,0,1,0-8.717,8.632A8.59,8.59,0,0,0,112.094,23.664Z" transform="translate(53.195 -2.136)"/>
              <path id="Path_6" data-name="Path 6" class="cls-1" d="M141.284,20.761V36.35h-5.263V21.3c0-4.07-1.464-6.377-4.918-6.377-3.164,0-6.337,2.4-6.337,7.158V36.341H119.5V21.288c0-4.07-1.464-6.377-4.916-6.377-2.919,0-5.893,2.062-6.284,6.176V36.332h-5.256V10.989h5.263v3.044c.3-.684,2-3.825,7.06-3.825,3.557,0,6.339,1.421,7.942,4.167,1.167-2.2,3.8-4.167,8.578-4.167C137.535,10.217,141.284,13.8,141.284,20.761Z" transform="translate(71.99 -2.172)"/>
            </g>
            <path id="Path_7" data-name="Path 7" class="cls-2" d="M20.526,14.261,4.086,22.086a1.445,1.445,0,0,0-.8,1.3V38.578a1.435,1.435,0,0,0,.8,1.3L20.534,47.71a3.043,3.043,0,0,0,1.325.3V13.954A3.4,3.4,0,0,0,20.526,14.261Z" transform="translate(4.587 18.9)"/>
            <path id="Path_8" data-name="Path 8" class="cls-2" d="M25.714.508,18,4.351V14.676L8.969,19.132V8.719L.88,12.764A1.6,1.6,0,0,0,0,14.185v19.9A1.577,1.577,0,0,0,2.266,35.5L25.043,24.255a3.164,3.164,0,0,1,1.4-.325V.333A1.636,1.636,0,0,0,25.714.508Z" transform="translate(0 -0.333)"/>
            <path id="Union_32" data-name="Union 32" class="cls-3" d="M0,32.854a2.875,2.875,0,0,1,1.334.3l16.448,7.825a1.448,1.448,0,0,1,.8,1.307V57.478a1.445,1.445,0,0,1-.8,1.3L1.342,66.61a3.125,3.125,0,0,1-1.342.3Zm24.18,2.315L1.4,23.922A3.292,3.292,0,0,0,0,23.6V0A1.666,1.666,0,0,1,.732.175L8.446,4.018V14.343L17.486,18.8V8.378l8.089,4.044a1.575,1.575,0,0,1,.872,1.43v19.9a1.583,1.583,0,0,1-1.575,1.585A1.553,1.553,0,0,1,24.18,35.168Z" transform="translate(26.447 0.007)"/>
          </g>
        </g>
      </g>
    </g>
  </g>
</svg>
